<svg xmlns="http://www.w3.org/2000/svg" xmlns:xlink="http://www.w3.org/1999/xlink" xmlns:inkscape="http://www.inkscape.org/namespaces/inkscape" version="1.1" width="166" height="230" viewBox="0 0 166 230">
<path transform="matrix(1.00008,0,0,-1.00002,67.29886,58.49285)" d="M56.69363-85.04042C56.69363-38.07327 31.31142 .00002 0 .00002-31.31142 .00002-56.69363-38.07327-56.69363-85.04042-56.69363-132.00757-31.31142-170.08089 0-170.08089 31.31142-170.08089 56.69363-132.00757 56.69363-85.04042ZM0-85.04042" fill="#e0e0e0"/>
<path transform="matrix(1.00008,0,0,-1.00002,67.29886,58.49285)" stroke-width=".3985" stroke-linecap="butt" stroke-miterlimit="10" stroke-linejoin="miter" fill="none" stroke="#000000" d="M56.69363-85.04042C56.69363-38.07327 31.31142 .00002 0 .00002-31.31142 .00002-56.69363-38.07327-56.69363-85.04042-56.69363-132.00757-31.31142-170.08089 0-170.08089 31.31142-170.08089 56.69363-132.00757 56.69363-85.04042ZM0-85.04042"/>
<path transform="matrix(1.00008,0,0,-1.00002,67.29886,58.49285)" d="M42.52022 0C42.52022 23.48355 23.48355 42.52022 0 42.52022-23.48355 42.52022-42.52022 23.48355-42.52022 0-42.52022-23.48355-23.48355-42.52022 0-42.52022 23.48355-42.52022 42.52022-23.48355 42.52022 0ZM0 0" fill="#e0e0e0"/>
<path transform="matrix(1.00008,0,0,-1.00002,67.29886,58.49285)" stroke-width=".3985" stroke-linecap="butt" stroke-miterlimit="10" stroke-linejoin="miter" fill="none" stroke="#000000" d="M42.52022 0C42.52022 23.48355 23.48355 42.52022 0 42.52022-23.48355 42.52022-42.52022 23.48355-42.52022 0-42.52022-23.48355-23.48355-42.52022 0-42.52022 23.48355-42.52022 42.52022-23.48355 42.52022 0ZM0 0"/>
<path transform="matrix(1.00008,0,0,-1.00002,67.29886,58.49285)" d="M-34.01608 34.01608-14.17339 56.69362 0 34.01608Z" fill="#e0e0e0"/>
<path transform="matrix(1.00008,0,0,-1.00002,67.29886,58.49285)" stroke-width=".3985" stroke-linecap="butt" stroke-miterlimit="10" stroke-linejoin="miter" fill="none" stroke="#000000" d="M-34.01608 34.01608-14.17339 56.69362 0 34.01608Z"/>
<path transform="matrix(1.00008,0,0,-1.00002,67.29886,58.49285)" d="M34.01608 34.01608 14.17339 56.69362 0 34.01608Z" fill="#e0e0e0"/>
<path transform="matrix(1.00008,0,0,-1.00002,67.29886,58.49285)" stroke-width=".3985" stroke-linecap="butt" stroke-miterlimit="10" stroke-linejoin="miter" fill="none" stroke="#000000" d="M34.01608 34.01608 14.17339 56.69362 0 34.01608Z"/>
<path transform="matrix(1.00008,0,0,-1.00002,67.29886,58.49285)" d="M-31.18166 39.68535-14.17339 53.85875-2.83484 39.68535Z" fill="#ffdfdf"/>
<path transform="matrix(1.00008,0,0,-1.00002,67.29886,58.49285)" stroke-width=".3985" stroke-linecap="butt" stroke-miterlimit="10" stroke-linejoin="miter" fill="none" stroke="#000000" d="M-31.18166 39.68535-14.17339 53.85875-2.83484 39.68535Z"/>
<path transform="matrix(1.00008,0,0,-1.00002,67.29886,58.49285)" d="M31.18166 39.68535 14.17339 53.85875 2.83484 39.68535Z" fill="#ffdfdf"/>
<path transform="matrix(1.00008,0,0,-1.00002,67.29886,58.49285)" stroke-width=".3985" stroke-linecap="butt" stroke-miterlimit="10" stroke-linejoin="miter" fill="none" stroke="#000000" d="M31.18166 39.68535 14.17339 53.85875 2.83484 39.68535Z"/>
<path transform="matrix(1.00008,0,0,-1.00002,67.29886,58.49285)" d="M-8.50412 14.17339C-8.50412 18.87015-12.31148 22.67752-17.00824 22.67752-21.705 22.67752-25.51236 18.87015-25.51236 14.17339-25.51236 9.47664-21.705 5.66927-17.00824 5.66927-12.31148 5.66927-8.50412 9.47664-8.50412 14.17339ZM-17.00824 14.17339" fill="#ffffff"/>
<path transform="matrix(1.00008,0,0,-1.00002,67.29886,58.49285)" stroke-width=".3985" stroke-linecap="butt" stroke-miterlimit="10" stroke-linejoin="miter" fill="none" stroke="#000000" d="M-8.50412 14.17339C-8.50412 18.87015-12.31148 22.67752-17.00824 22.67752-21.705 22.67752-25.51236 18.87015-25.51236 14.17339-25.51236 9.47664-21.705 5.66927-17.00824 5.66927-12.31148 5.66927-8.50412 9.47664-8.50412 14.17339ZM-17.00824 14.17339"/>
<path transform="matrix(1.00008,0,0,-1.00002,67.29886,58.49285)" d="M25.51236 14.17339C25.51236 18.87015 21.705 22.67752 17.00824 22.67752 12.31148 22.67752 8.50412 18.87015 8.50412 14.17339 8.50412 9.47664 12.31148 5.66927 17.00824 5.66927 21.705 5.66927 25.51236 9.47664 25.51236 14.17339ZM17.00824 14.17339" fill="#ffffff"/>
<path transform="matrix(1.00008,0,0,-1.00002,67.29886,58.49285)" stroke-width=".3985" stroke-linecap="butt" stroke-miterlimit="10" stroke-linejoin="miter" fill="none" stroke="#000000" d="M25.51236 14.17339C25.51236 18.87015 21.705 22.67752 17.00824 22.67752 12.31148 22.67752 8.50412 18.87015 8.50412 14.17339 8.50412 9.47664 12.31148 5.66927 17.00824 5.66927 21.705 5.66927 25.51236 9.47664 25.51236 14.17339ZM17.00824 14.17339"/>
<path transform="matrix(1.00008,0,0,-1.00002,67.29886,58.49285)" d="M-14.17339 14.17339C-14.17339 15.73904-15.44258 17.00824-17.00824 17.00824-18.5739 17.00824-19.8431 15.73904-19.8431 14.17339-19.8431 12.60774-18.5739 11.33855-17.00824 11.33855-15.44258 11.33855-14.17339 12.60774-14.17339 14.17339ZM-17.00824 14.17339"/>
<path transform="matrix(1.00008,0,0,-1.00002,67.29886,58.49285)" stroke-width=".3985" stroke-linecap="butt" stroke-miterlimit="10" stroke-linejoin="miter" fill="none" stroke="#000000" d="M-14.17339 14.17339C-14.17339 15.73904-15.44258 17.00824-17.00824 17.00824-18.5739 17.00824-19.8431 15.73904-19.8431 14.17339-19.8431 12.60774-18.5739 11.33855-17.00824 11.33855-15.44258 11.33855-14.17339 12.60774-14.17339 14.17339ZM-17.00824 14.17339"/>
<path transform="matrix(1.00008,0,0,-1.00002,67.29886,58.49285)" d="M19.8431 14.17339C19.8431 15.73904 18.5739 17.00824 17.00824 17.00824 15.44258 17.00824 14.17339 15.73904 14.17339 14.17339 14.17339 12.60774 15.44258 11.33855 17.00824 11.33855 18.5739 11.33855 19.8431 12.60774 19.8431 14.17339ZM17.00824 14.17339"/>
<path transform="matrix(1.00008,0,0,-1.00002,67.29886,58.49285)" stroke-width=".3985" stroke-linecap="butt" stroke-miterlimit="10" stroke-linejoin="miter" fill="none" stroke="#000000" d="M19.8431 14.17339C19.8431 15.73904 18.5739 17.00824 17.00824 17.00824 15.44258 17.00824 14.17339 15.73904 14.17339 14.17339 14.17339 12.60774 15.44258 11.33855 17.00824 11.33855 18.5739 11.33855 19.8431 12.60774 19.8431 14.17339ZM17.00824 14.17339"/>
<path transform="matrix(1.00008,0,0,-1.00002,67.29886,58.49285)" d="M0 0-5.66927-5.66927H5.66927Z" fill="#ffbfbf"/>
<path transform="matrix(1.00008,0,0,-1.00002,67.29886,58.49285)" stroke-width=".3985" stroke-linecap="butt" stroke-miterlimit="10" stroke-linejoin="miter" fill="none" stroke="#000000" d="M0 0-5.66927-5.66927H5.66927Z"/>
<path transform="matrix(1.00008,0,0,-1.00002,67.29886,58.49285)" stroke-width=".3985" stroke-linecap="butt" stroke-miterlimit="10" stroke-linejoin="miter" fill="none" stroke="#000000" d="M-14.17339-8.50412-42.5202-14.17339"/>
<path transform="matrix(1.00008,0,0,-1.00002,67.29886,58.49285)" stroke-width=".3985" stroke-linecap="butt" stroke-miterlimit="10" stroke-linejoin="miter" fill="none" stroke="#000000" d="M-14.17339-5.66927-42.5202 0"/>
<path transform="matrix(1.00008,0,0,-1.00002,67.29886,58.49285)" stroke-width=".3985" stroke-linecap="butt" stroke-miterlimit="10" stroke-linejoin="miter" fill="none" stroke="#000000" d="M-14.17339-2.83484-42.5202 14.17339"/>
<path transform="matrix(1.00008,0,0,-1.00002,67.29886,58.49285)" stroke-width=".3985" stroke-linecap="butt" stroke-miterlimit="10" stroke-linejoin="miter" fill="none" stroke="#000000" d="M14.17339-8.50412 42.5202-14.17339"/>
<path transform="matrix(1.00008,0,0,-1.00002,67.29886,58.49285)" stroke-width=".3985" stroke-linecap="butt" stroke-miterlimit="10" stroke-linejoin="miter" fill="none" stroke="#000000" d="M14.17339-5.66927 42.5202 0"/>
<path transform="matrix(1.00008,0,0,-1.00002,67.29886,58.49285)" stroke-width=".3985" stroke-linecap="butt" stroke-miterlimit="10" stroke-linejoin="miter" fill="none" stroke="#000000" d="M14.17339-2.83484 42.5202 14.17339"/>
<path transform="matrix(1.00008,0,0,-1.00002,67.29886,58.49285)" stroke-width=".3985" stroke-linecap="butt" stroke-miterlimit="10" stroke-linejoin="miter" fill="none" stroke="#000000" d="M0-5.66927C-5.66927-17.00824-11.33855-11.33855 0-22.67752"/>
<path transform="matrix(1.00008,0,0,-1.00002,67.29886,58.49285)" stroke-width=".3985" stroke-linecap="butt" stroke-miterlimit="10" stroke-linejoin="miter" fill="none" stroke="#000000" d="M0-5.66927C5.66927-17.00824 11.33855-11.33855 0-22.67752"/>
<path transform="matrix(1.00008,0,0,-1.00002,67.29886,58.49285)" d="M-36.85092-155.90744V-85.04042H-22.67752V-155.90744ZM-22.67752-85.04042" fill="#e0e0e0"/>
<path transform="matrix(1.00008,0,0,-1.00002,67.29886,58.49285)" stroke-width=".3985" stroke-linecap="butt" stroke-miterlimit="10" stroke-linejoin="miter" fill="none" stroke="#000000" d="M-36.85092-155.90744V-85.04042H-22.67752V-155.90744ZM-22.67752-85.04042"/>
<path transform="matrix(1.00008,0,0,-1.00002,67.29886,58.49285)" d="M22.67752-155.90744V-85.04042H36.85092V-155.90744ZM36.85092-85.04042" fill="#e0e0e0"/>
<path transform="matrix(1.00008,0,0,-1.00002,67.29886,58.49285)" stroke-width=".3985" stroke-linecap="butt" stroke-miterlimit="10" stroke-linejoin="miter" fill="none" stroke="#000000" d="M22.67752-155.90744V-85.04042H36.85092V-155.90744ZM36.85092-85.04042"/>
<path transform="matrix(1.00008,0,0,-1.00002,67.29886,58.49285)" d="M-36.85092-147.40332C-36.85092-139.57547-43.19647-133.22992-51.02432-133.22992-58.85217-133.22992-65.19772-139.57547-65.19772-147.40332-65.19772-155.23117-58.85217-161.5767-51.02432-161.5767-43.19647-161.5767-36.85092-155.23117-36.85092-147.40332ZM-51.02432-147.40332" fill="#e0e0e0"/>
<path transform="matrix(1.00008,0,0,-1.00002,67.29886,58.49285)" stroke-width=".3985" stroke-linecap="butt" stroke-miterlimit="10" stroke-linejoin="miter" fill="none" stroke="#000000" d="M-36.85092-147.40332C-36.85092-139.57547-43.19647-133.22992-51.02432-133.22992-58.85217-133.22992-65.19772-139.57547-65.19772-147.40332-65.19772-155.23117-58.85217-161.5767-51.02432-161.5767-43.19647-161.5767-36.85092-155.23117-36.85092-147.40332ZM-51.02432-147.40332"/>
<path transform="matrix(1.00008,0,0,-1.00002,67.29886,58.49285)" d="M65.19772-147.40332C65.19772-139.57547 58.85217-133.22992 51.02432-133.22992 43.19647-133.22992 36.85092-139.57547 36.85092-147.40332 36.85092-155.23117 43.19647-161.5767 51.02432-161.5767 58.85217-161.5767 65.19772-155.23117 65.19772-147.40332ZM51.02432-147.40332" fill="#e0e0e0"/>
<path transform="matrix(1.00008,0,0,-1.00002,67.29886,58.49285)" stroke-width=".3985" stroke-linecap="butt" stroke-miterlimit="10" stroke-linejoin="miter" fill="none" stroke="#000000" d="M65.19772-147.40332C65.19772-139.57547 58.85217-133.22992 51.02432-133.22992 43.19647-133.22992 36.85092-139.57547 36.85092-147.40332 36.85092-155.23117 43.19647-161.5767 51.02432-161.5767 58.85217-161.5767 65.19772-155.23117 65.19772-147.40332ZM51.02432-147.40332"/>
<path transform="matrix(1.00008,0,0,-1.00002,67.29886,58.49285)" d="M56.69362-99.21382C85.04042-70.867 113.38724-99.21382 85.04042-141.73404 70.867-127.56062 70.867-127.56062 56.69362-99.21382" fill="#e0e0e0"/>
<path transform="matrix(1.00008,0,0,-1.00002,67.29886,58.49285)" stroke-width=".3985" stroke-linecap="butt" stroke-miterlimit="10" stroke-linejoin="miter" fill="none" stroke="#000000" d="M56.69362-99.21382C85.04042-70.867 113.38724-99.21382 85.04042-141.73404 70.867-127.56062 70.867-127.56062 56.69362-99.21382"/>
</svg>
