<svg xmlns="http://www.w3.org/2000/svg" xmlns:xlink="http://www.w3.org/1999/xlink" xmlns:inkscape="http://www.inkscape.org/namespaces/inkscape" version="1.1" width="204" height="172" viewBox="0 0 204 172">
<defs>
<path id="font_1_1" d="M.6589966 .23046875C.6759949 .23046875 .69400027 .23046875 .69400027 .25045777 .69400027 .27046205 .6759949 .27046205 .6589966 .27046205H.117996219C.100997928 .27046205 .08299255 .27046205 .08299255 .25045777 .08299255 .23046875 .100997928 .23046875 .117996219 .23046875H.6589966Z"/>
<path id="font_2_4" d="M.1269989 .07699585 .23298645 .18003845C.3889923 .31811524 .44898988 .3721466 .44898988 .47216798 .44898988 .5860901 .35899354 .6660156 .23699951 .6660156 .12399292 .6660156 .049987794 .57411196 .049987794 .48516847 .049987794 .4291687 .099990848 .4291687 .102996829 .4291687 .11999512 .4291687 .15499878 .44117738 .15499878 .48217774 .15499878 .5081787 .13699341 .5341797 .101989749 .5341797 .09399414 .5341797 .09199524 .5341797 .08898926 .5331726 .11199951 .59806826 .1659851 .63500979 .22399903 .63500979 .31498719 .63500979 .35798646 .5541382 .35798646 .47216798 .35798646 .39215089 .30799867 .31311036 .25299073 .25108338L.06098938 .036987306C.049987794 .025985718 .049987794 .023986817 .049987794 0H.42099L.44898988 .17404175H.42399598C.4189911 .14402771 .4119873 .1000061 .4019928 .084991458 .394989 .07699585 .32899476 .07699585 .30699159 .07699585H.1269989Z"/>
<path id="font_2_3" d="M.2939911 .64004519C.2939911 .66400149 .2939911 .6660156 .2709961 .6660156 .20899964 .60227969 .12098694 .60227969 .08898926 .60227969V.57128909C.10899353 .57128909 .16799927 .57128909 .21998596 .5972748V.07902527C.21998596 .042999269 .21699524 .0309906 .1269989 .0309906H.09498596V0C.12998963 .0029907227 .21699524 .0029907227 .25698854 .0029907227 .29699708 .0029907227 .38398744 .0029907227 .4189911 0V.0309906H.3869934C.29699708 .0309906 .2939911 .041992189 .2939911 .07902527V.64004519Z"/>
<path id="font_3_1" d="M.31098939 .36265565H.42999269C.4149933 .30274964 .3929901 .2118988 .3929901 .13302613 .3929901 .09309387 .397995 .06613159 .4039917 .044174196 .41999818-.0057678224 .43299867-.009765625 .44898988-.009765625 .47200013-.009765625 .49598695 .011230469 .49598695 .035186769 .49598695 .043182374 .49398805 .047164918 .48799134 .057159425 .46899415 .09408569 .45098878 .15100098 .45098878 .23286438 .45098878 .25183106 .45098878 .29177857 .46499635 .36265565H.58999636C.60798647 .36265565 .6159973 .36265565 .6269989 .37065126 .6409912 .380661 .6439972 .39665223 .6439972 .4016571 .6439972 .43066407 .6179962 .43066407 .6009979 .43066407H.22399903C.18299866 .43066407 .15499878 .42166139 .10998535 .37965394 .083999637 .35665895 .04499817 .30274964 .04499817 .2937622 .04499817 .28178407 .057998659 .28178407 .06199646 .28178407 .07299805 .28178407 .07398987 .28378297 .07998657 .2927704 .1309967 .36265565 .19299317 .36265565 .21499634 .36265565H.27598573C.24499512 .25283814 .19099427 .13502503 .16099549 .07511902 .15499878 .062149049 .14498902 .04118347 .14199829 .03718567 .14099121 .033187868 .13899231 .029190064 .13899231 .022201539 .13899231 .006225586 .15098572-.009765625 .17399597-.009765625 .21398926-.009765625 .22499085 .035186769 .24899292 .12504578L.31098939 .36265565Z"/>
<path id="font_4_1" d="M.5049896 .18203736H.47099305C.46798707 .16001892 .45799256 .100997928 .44499208 .09098816 .43699647 .084991458 .3600006 .084991458 .34599305 .084991458H.1619873C.2669983 .17803955 .3019867 .20603943 .3619995 .25306703 .43598939 .312088 .5049896 .374115 .5049896 .46914674 .5049896 .5900879 .39898683 .6640625 .2709961 .6640625 .14698792 .6640625 .06298828 .57710269 .06298828 .4851532 .06298828 .43414308 .10598755 .42915345 .115997318 .42915345 .13999939 .42915345 .16899109 .44615174 .16899109 .48214723 .16899109 .5001526 .1619873 .53515627 .10998535 .53515627 .14099121 .6060791 .20899964 .62805178 .2559967 .62805178 .35598756 .62805178 .4079895 .5501404 .4079895 .46914674 .4079895 .38212586 .34599305 .3130951 .31399537 .27708436L.07299805 .038986207C.06298828 .02999878 .06298828 .027999878 .06298828 0H.47499085L.5049896 .18203736Z"/>
<path id="font_5_1" d="M.2649994 .37265016H.37799073C.34498597 .22489929 .33599855 .18196106 .33599855 .11508179 .33599855 .100097659 .33599855 .073150638 .34399415 .03919983 .35398866-.0047454836 .36499024-.0107421879 .37998963-.0107421879 .3999939-.0107421879 .42099 .007247925 .42099 .02722168 .42099 .033218385 .42099 .035202028 .4149933 .049179079 .38598634 .12106323 .38598634 .18595886 .38598634 .21391297 .38598634 .26683045 .3929901 .32073976 .4039917 .37265016H.5179901C.5309906 .37265016 .5669861 .37265016 .5669861 .406662 .5669861 .43066407 .54599 .43066407 .5269928 .43066407H.19198609C.16999817 .43066407 .13198853 .43066407 .08799744 .38365174 .052993776 .34469605 .026992798 .29878236 .026992798 .29379273 .026992798 .29278565 .026992798 .28379823 .038986207 .28379823 .04699707 .28379823 .04899597 .28779603 .054992677 .29577638 .10398865 .37265016 .1619873 .37265016 .18199158 .37265016H.23899842C.20698548 .25186158 .15299988 .13105774 .11099243 .04020691 .102996829 .025222779 .102996829 .023223877 .102996829 .016235352 .102996829-.002746582 .11898804-.0107421879 .13198853-.0107421879 .1619873-.0107421879 .16999817 .017242432 .18199158 .05418396 .19599915 .100097659 .19599915 .10209656 .20899964 .15202332L.2649994 .37265016Z"/>
<clipPath id="clip_6">
<path transform="matrix(1.00005,0,0,-1,6.5826265,165.409)" d="M0 0H194.2745V161.39958H0Z"/>
</clipPath>
<path id="font_2_5" d="M.33299256 .076156619C.33699037 .036132814 .3639984-.005859375 .41099549-.005859375 .43199159-.005859375 .49299623 .008132935 .49299623 .089157108V.14518738H.46798707V.089157108C.46798707 .031143189 .44299317 .025131226 .43199159 .025131226 .39898683 .025131226 .394989 .07015991 .394989 .075149539V.27514649C.394989 .31707765 .394989 .3560791 .35899354 .39312745 .31999208 .43223573 .269989 .4482422 .22200012 .4482422 .13999939 .4482422 .070999149 .40115357 .070999149 .335083 .070999149 .30508424 .09098816 .28808595 .116989139 .28808595 .14498902 .28808595 .16299439 .30807496 .16299439 .33407594 .16299439 .3460846 .1579895 .3790741 .11199951 .38008119 .13899231 .41519166 .18798828 .426239 .21998596 .426239 .2689972 .426239 .32598878 .38710023 .32598878 .29808045V.26123048C.2749939 .2582245 .20498657 .25523377 .14199829 .22523499 .066986087 .1912384 .041992189 .13923645 .041992189 .09524536 .041992189 .014251709 .13899231-.0107421879 .20199585-.0107421879 .2679901-.010864258 .31399537 .029129029 .33299256 .076156619M.32598878 .24023438V.1401825C.32598878 .045135499 .2539978 .011138916 .20899964 .011138916 .1599884 .011138916 .11898804 .046142579 .11898804 .09616089 .11898804 .15118408 .16099549 .23422241 .32598878 .24023438Z"/>
<path id="font_2_10" d="M.16699219 .3323059V.4423828L.027999878 .43138124V.40037538C.09799194 .40037538 .10598755 .39337159 .10598755 .34431459V.076034549C.10598755 .0309906 .09498596 .0309906 .027999878 .0309906V0C.066986087 .0009918213 .11399841 .0029907227 .14199829 .0029907227 .18199158 .0029907227 .22898865 .0029907227 .2689972 0V.0309906H.24798584C.17399597 .0309906 .17199707 .042007448 .17199707 .07803345V.232193C.17199707 .33128358 .21398926 .42037965 .2899933 .42037965 .29699708 .42037965 .29899598 .42037965 .30099488 .41937257 .2979889 .41838075 .27799989 .4063568 .27799989 .38034059 .27799989 .35231019 .29899598 .33729554 .32099916 .33729554 .33898927 .33729554 .3639984 .3493042 .3639984 .3813324 .3639984 .41337586 .33299256 .4423828 .2899933 .4423828 .21699524 .4423828 .18099976 .37535096 .16699219 .3323059Z"/>
<path id="font_2_6" d="M.116989139 .21801758C.116989139 .38093568 .19898987 .42323304 .2519989 .42323304 .26098634 .42323304 .32398988 .42222596 .35899354 .38594056 .31799317 .38293458 .31199647 .3529358 .31199647 .3399353 .31199647 .31393434 .32998658 .2939453 .35798646 .2939453 .38398744 .2939453 .4039917 .3109436 .4039917 .34094239 .4039917 .40911866 .32798768 .4482422 .25099183 .4482422 .12599182 .4482422 .033996583 .3399353 .033996583 .21601868 .033996583 .08816528 .1329956-.0107421879 .24899292-.0107421879 .3829956-.0107421879 .4149933 .10914612 .4149933 .119140628 .4149933 .12911988 .40499879 .12911988 .4019928 .12911988 .3929901 .12911988 .3909912 .12512207 .3889923 .119140628 .3600006 .026229859 .29499818 .014251709 .2579956 .014251709 .20498657 .014251709 .116989139 .0572052 .116989139 .21801758Z"/>
<path id="font_2_11" d="M.20799256 .19424439C.22999573 .19024658 .31199647 .17424011 .31199647 .102249149 .31199647 .051254274 .2769928 .011245728 .19898987 .011245728 .114990238 .011245728 .07899475 .06825256 .05999756 .15324402 .056991579 .1662445 .055999757 .17024231 .04598999 .17024231 .032989503 .17024231 .032989503 .16323853 .032989503 .14524842V.013244629C.032989503-.003753662 .032989503-.0107421879 .04399109-.0107421879 .04899597-.0107421879 .049987794-.009750366 .068984989 .009246826 .070999149 .011245728 .070999149 .013244629 .08898926 .03224182 .1329956-.009750366 .17799378-.0107421879 .19898987-.0107421879 .31399537-.0107421879 .3600006 .056243898 .3600006 .12825012 .3600006 .1812439 .32998658 .21124268 .31799317 .22323609 .2849884 .25523377 .24598694 .26324464 .20399475 .27124024 .147995 .28224183 .08099365 .2952423 .08099365 .35324098 .08099365 .38822938 .10699463 .42922975 .19299317 .42922975 .30299378 .42922975 .30799867 .3392334 .30999757 .3082428 .31098939 .2992401 .31999208 .2992401 .32199098 .2992401 .33499146 .2992401 .33499146 .304245 .33499146 .3232422V.4242401C.33499146 .4412384 .33499146 .4482422 .32398988 .4482422 .31900025 .4482422 .31698609 .4482422 .3039856 .43623353 .30099488 .43223573 .29100038 .42323304 .2869873 .42022706 .24899292 .4482422 .20799256 .4482422 .19299317 .4482422 .070999149 .4482422 .032989503 .38124085 .032989503 .3252411 .032989503 .29023744 .04899597 .26223756 .07598877 .24023438 .10798645 .21424866 .13598633 .2082367 .20799256 .19424439Z"/>
<path id="font_2_7" d="M.1769867 .4423828 .036987306 .43138124V.40037538C.101989749 .40037538 .11099243 .3943634 .11099243 .34532167V.076034549C.11099243 .0309906 .099990848 .0309906 .032989503 .0309906V0C.06498718 .0009918213 .11898804 .0029907227 .14299011 .0029907227 .17799378 .0029907227 .21299744 .0009918213 .24699402 0V.0309906C.18099976 .0309906 .1769867 .035995485 .1769867 .075042728V.4423828M.18099976 .6159363C.18099976 .64793398 .1559906 .6689453 .12799073 .6689453 .09700012 .6689453 .07499695 .64193728 .07499695 .6159363 .07499695 .5889435 .09700012 .5629425 .12799073 .5629425 .1559906 .5629425 .18099976 .5839386 .18099976 .6159363Z"/>
<path id="font_2_8" d="M.10998535 .34429933V.076034549C.10998535 .0309906 .09899902 .0309906 .03199768 .0309906V0C.066986087 .0009918213 .117996219 .0029907227 .14498902 .0029907227 .17098999 .0029907227 .22299195 .0009918213 .25698854 0V.0309906C.18998719 .0309906 .1789856 .0309906 .1789856 .076034549V.2602234C.1789856 .36431886 .25 .42037965 .31399537 .42037965 .3769989 .42037965 .3880005 .36631776 .3880005 .30926515V.076034549C.3880005 .0309906 .3769989 .0309906 .30999757 .0309906V0C.34498597 .0009918213 .3959961 .0029907227 .4229889 .0029907227 .44898988 .0029907227 .5009918 .0009918213 .5349884 0V.0309906C.48298646 .0309906 .45799256 .0309906 .45700074 .061019899V.25221253C.45700074 .3383026 .45700074 .36932374 .42599488 .405365 .4119873 .42237855 .3789978 .4423828 .32099916 .4423828 .24798584 .4423828 .20098877 .39935304 .17298889 .33729554V.4423828L.03199768 .43138124V.40037538C.101989749 .4003601 .10998535 .39335633 .10998535 .34429933Z"/>
<path id="font_2_1" d="M.33099366-.2400055C.33099366-.23701477 .33099366-.23500061 .31399537-.21800232 .18899536-.0920105 .15699768 .09700012 .15699768 .25 .15699768 .42399598 .19499207 .59799197 .31799317 .72299197 .33099366 .73498538 .33099366 .7369995 .33099366 .73999026 .33099366 .746994 .32699586 .75 .32099916 .75 .31098939 .75 .22099304 .6819916 .1619873 .5549927 .11099243 .44499208 .09899902 .33399964 .09899902 .25 .09899902 .17199707 .10998535 .050994874 .16499329-.06201172 .22499085-.18501282 .31098939-.25 .32099916-.25 .32699586-.25 .33099366-.24700928 .33099366-.2400055Z"/>
<path id="font_5_2" d="M.33399964 .30233766C.33999635 .32835389 .36299134 .42037965 .43299867 .42037965 .43798829 .42037965 .46199037 .42037965 .48298646 .40734864 .45498658 .402359 .43499757 .37734986 .43499757 .35334779 .43499757 .33735658 .44599916 .31835938 .47299195 .31835938 .49499513 .31835938 .5269928 .3363495 .5269928 .37635804 .5269928 .42837525 .46798707 .4423828 .43399049 .4423828 .37599183 .4423828 .34098817 .38935853 .32899476 .36634828 .3039856 .43237306 .25 .4423828 .22099304 .4423828 .116989139 .4423828 .05999756 .3133545 .05999756 .28834535 .05999756 .27833558 .069992069 .27833558 .07199097 .27833558 .07998657 .27833558 .08299255 .28033448 .084991458 .28933717 .11898804 .39535523 .18499756 .42037965 .21899414 .42037965 .23799134 .42037965 .272995 .4113617 .272995 .35334779 .272995 .32235719 .2559967 .25532533 .21899414 .11528015 .20298767 .053268434 .16799927 .011245728 .12399292 .011245728 .117996219 .011245728 .09498596 .011245728 .07398987 .024276734 .09899902 .029266358 .12098694 .05027771 .12098694 .07827759 .12098694 .105270389 .09899902 .11328125 .083999637 .11328125 .053985597 .11328125 .0289917 .08728027 .0289917 .055267335 .0289917 .009246826 .07899475-.0107421879 .12298584-.0107421879 .18899536-.0107421879 .22499085 .059280397 .22799683 .0652771 .23999024 .028274537 .27598573-.0107421879 .33599855-.0107421879 .43899537-.0107421879 .49598695 .118270877 .49598695 .14328003 .49598695 .1532898 .4869995 .1532898 .48399354 .1532898 .47499085 .1532898 .47299195 .14929199 .47099305 .14228821 .43798829 .03527832 .36999513 .011245728 .33799745 .011245728 .29899598 .011245728 .2829895 .043273927 .2829895 .07727051 .2829895 .09927368 .2889862 .121276859 .2999878 .16529846L.33399964 .30233766Z"/>
<path id="font_2_2" d="M.2889862 .25C.2889862 .32798768 .27799989 .44898988 .22299195 .56199648 .16299439 .68499758 .07699585 .75 .066986087 .75 .06098938 .75 .056991579 .74598696 .056991579 .73999026 .056991579 .7369995 .056991579 .73498538 .07598877 .71699526 .17399597 .6179962 .23098755 .45899964 .23098755 .25 .23098755 .07899475 .19400025-.09700012 .069992069-.2230072 .056991579-.23500061 .056991579-.23701477 .056991579-.2400055 .056991579-.2460022 .06098938-.25 .066986087-.25 .07699585-.25 .16699219-.18200684 .22599793-.055007936 .2769928 .054992677 .2889862 .16600037 .2889862 .25Z"/>
<path id="font_2_9" d="M.47099305 .21424866C.47099305 .34223939 .37098695 .4482422 .25 .4482422 .125 .4482422 .027999878 .3392334 .027999878 .21424866 .027999878 .085250858 .13198853-.0107421879 .24899292-.0107421879 .36999513-.0107421879 .47099305 .087249759 .47099305 .21424866M.25 .014251709C.20698548 .014251709 .16299439 .035247804 .13598633 .08125305 .11099243 .12524414 .11099243 .18624878 .11099243 .22224427 .11099243 .26124574 .11099243 .31523133 .1349945 .35923768 .1619873 .40522767 .20899964 .426239 .24899292 .426239 .29299928 .426239 .33599855 .40423585 .3619995 .36123658 .3880005 .3182373 .3880005 .26023866 .3880005 .22224427 .3880005 .18624878 .3880005 .13224793 .3659973 .08824158 .34399415 .04324341 .2999878 .014251709 .25 .014251709Z"/>
<path id="font_2_12" d="M.17298889 .3996582H.31599427V.43066407H.17298889V.6147156H.147995C.14698792 .5326996 .116989139 .42565919 .018997193 .42166139V.3996582H.10398865V.12416077C.10398865 .0012512207 .19699097-.0107421879 .23298645-.0107421879 .3039856-.0107421879 .33198548 .06021118 .33198548 .12416077V.18112183H.30699159V.12615967C.30699159 .052215578 .2769928 .014251709 .23999024 .014251709 .17298889 .014251709 .17298889 .10517883 .17298889 .122161868V.3996582Z"/>
</defs>
<path transform="matrix(1.00005,0,0,-1,6.5826265,165.409)" stroke-width=".3985" stroke-linecap="butt" stroke-miterlimit="10" stroke-linejoin="miter" fill="none" stroke="#cbcbcb" d="M0 0V161.39958M48.56879 0V161.39958M145.70639 0V161.39958M194.27519 0V161.39958"/>
<path transform="matrix(1.00005,0,0,-1,6.5826265,165.409)" stroke-width=".3985" stroke-linecap="butt" stroke-miterlimit="10" stroke-linejoin="miter" fill="none" stroke="#cbcbcb" d="M0 .02727H194.2745M0 107.57245H194.2745M0 161.34503H194.2745"/>
<path transform="matrix(1.00005,0,0,-1,6.5826265,165.409)" stroke-width=".19925" stroke-linecap="butt" stroke-miterlimit="10" stroke-linejoin="miter" fill="none" stroke="#929292" d="M0 51.6738V55.9259M48.56879 51.6738V55.9259M145.70639 51.6738V55.9259M194.27519 51.6738V55.9259"/>
<path transform="matrix(1.00005,0,0,-1,6.5826265,165.409)" stroke-width=".19925" stroke-linecap="butt" stroke-miterlimit="10" stroke-linejoin="miter" fill="none" stroke="#929292" d="M95.01173 .02727H99.26344M95.01173 107.57245H99.26344M95.01173 161.34503H99.26344"/>
<path transform="matrix(1.00005,0,0,-1,6.5826265,165.409)" stroke-width=".3985" stroke-linecap="butt" stroke-miterlimit="10" stroke-linejoin="miter" fill="none" stroke="#000000" d="M0 53.79985H192.28199"/>
<path transform="matrix(1.00005,0,0,-1,198.8742,111.609149)" d="M1.99252 0-1.19551 1.59401 0 0-1.19551-1.59401"/>
<path transform="matrix(1.00005,0,0,-1,6.5826265,165.409)" stroke-width=".3985" stroke-linecap="butt" stroke-miterlimit="10" stroke-linejoin="miter" fill="none" stroke="#000000" d="M97.13759 0V159.40706"/>
<path transform="matrix(0,-1,-1.00005,-0,103.72507,6.001938)" d="M1.99252 0-1.19551 1.59401 0 0-1.19551-1.59401"/>
<use data-text="&#x2212;" xlink:href="#font_1_1" transform="matrix(9.963098,0,0,-9.9626,.21730805,123.674999)"/>
<use data-text="2" xlink:href="#font_2_4" transform="matrix(9.963098,0,0,-9.9626,7.96669,123.674999)"/>
<use data-text="&#x2212;" xlink:href="#font_1_1" transform="matrix(9.963098,0,0,-9.9626,48.788736,123.674999)"/>
<use data-text="1" xlink:href="#font_2_3" transform="matrix(9.963098,0,0,-9.9626,56.538118,123.674999)"/>
<use data-text="1" xlink:href="#font_2_3" transform="matrix(9.963098,0,0,-9.9626,149.80579,123.674999)"/>
<use data-text="2" xlink:href="#font_2_4" transform="matrix(9.963098,0,0,-9.9626,198.37722,123.674999)"/>
<use data-text="&#x2212;" xlink:href="#font_1_1" transform="matrix(9.963098,0,0,-9.9626,83.02944,167.127)"/>
<use data-text="&#x03c0;" xlink:href="#font_3_1" transform="matrix(6.9741489,0,0,-6.9738,91.973888,163.204)"/>
<path transform="matrix(1.00005,0,0,-1,-19.243668,23.192)" stroke-width=".3985" stroke-linecap="butt" stroke-miterlimit="10" stroke-linejoin="miter" fill="none" stroke="#000000" d="M111.212-141.444H116.121"/>
<use data-text="2" xlink:href="#font_4_1" transform="matrix(6.9741489,0,0,-6.9738,92.44291,170.562)"/>
<use data-text="&#x03c0;" xlink:href="#font_3_1" transform="matrix(6.9741489,0,0,-6.9738,91.973888,55.65799)"/>
<path transform="matrix(1.00005,0,0,-1,-11.494278,-84.354007)" stroke-width=".3985" stroke-linecap="butt" stroke-miterlimit="10" stroke-linejoin="miter" fill="none" stroke="#000000" d="M103.463-141.444H108.372"/>
<use data-text="2" xlink:href="#font_4_1" transform="matrix(6.9741489,0,0,-6.9738,92.44291,63.01599)"/>
<use data-text="&#x03c0;" xlink:href="#font_5_1" transform="matrix(9.963098,0,0,-9.9626,92.04189,6.2089998)"/>
<g clip-path="url(#clip_6)">
<path transform="matrix(1.00005,0,0,-1,6.5826265,165.409)" stroke-width=".3985" stroke-linecap="butt" stroke-miterlimit="10" stroke-linejoin="miter" fill="none" stroke="#0000ff" d="M48.56879 0 49.54993 6.89548 50.53107 9.76857 51.51222 11.98569 52.49335 13.8636 53.4745 15.52606 54.45564 17.03783 55.43678 18.43553 56.41792 19.74359 57.39908 20.97952 58.3802 22.15442 59.36134 23.27817 60.3425 24.35858 61.32364 25.40027 62.30478 26.40846 63.28592 27.3865 64.26707 28.33858 65.24821 29.26692 66.22935 30.17429 67.2105 31.06181 68.19165 31.93169 69.17278 32.78546 70.15393 33.62491 71.13507 34.45042 72.11621 35.2635 73.09735 36.06477 74.0785 36.85587 75.05965 37.63762 76.04079 38.40997 77.02193 39.17403 78.00307 39.93039 78.9842 40.68004 79.96535 41.42278 80.9465 42.15945 81.92764 42.89056 82.90878 43.61623 83.88994 44.33755 84.87108 45.05495 85.85222 45.7681 86.83336 46.47772 87.8145 47.18416 88.79564 47.88809 89.77678 48.58917 90.75793 49.28807 91.73907 49.98509 92.72021 50.68015 93.70135 51.3743 94.68251 52.06776 95.66364 52.7602 96.64479 53.4522 97.62595 54.14441 98.60707 54.83641 99.58821 55.52885 100.56937 56.22198 101.5505 56.91644 102.53165 57.61118 103.51279 58.30852 104.49394 59.00742 105.47507 59.70848 106.45622 60.41206 107.43736 61.11884 108.41852 61.82843 109.39964 62.54156 110.38078 63.25859 111.36194 63.98024 112.34306 64.70552 113.32422 65.43698 114.30537 66.17365 115.2865 66.91634 116.26765 67.66594 117.2488 68.42229 118.22995 69.18631 119.21107 69.95863 120.19221 70.74033 121.17337 71.53139 122.1545 72.33258 123.13565 73.14561 124.11679 73.97108 125.09795 74.81006 126.07907 75.66417 127.06023 76.53397 128.04137 77.42142 129.02249 78.3287 130.00365 79.25694 130.9848 80.2089 131.96593 81.18681 132.94709 82.19487 133.92823 83.2364 134.90938 84.3166 135.8905 85.44017 136.87166 86.61482 137.8528 87.84982 138.83394 89.1575 139.81508 90.55542 140.79622 92.06662 141.77738 93.72826 142.7585 95.60503 143.73966 97.81895 144.7208 100.68723 145.70194 107.46185"/>
<use data-text="a" xlink:href="#font_2_5" transform="matrix(9.963098,0,0,-9.9626,158.05919,66.149997)" fill="#0000ff"/>
<use data-text="r" xlink:href="#font_2_10" transform="matrix(9.963098,0,0,-9.9626,163.04074,66.149997)" fill="#0000ff"/>
<use data-text="c" xlink:href="#font_2_6" transform="matrix(9.963098,0,0,-9.9626,166.93631,66.149997)" fill="#0000ff"/>
<use data-text="s" xlink:href="#font_2_11" transform="matrix(9.963098,0,0,-9.9626,171.35993,66.149997)" fill="#0000ff"/>
<use data-text="i" xlink:href="#font_2_7" transform="matrix(9.963098,0,0,-9.9626,175.28537,66.149997)" fill="#0000ff"/>
<use data-text="n" xlink:href="#font_2_8" transform="matrix(9.963098,0,0,-9.9626,178.04517,66.149997)" fill="#0000ff"/>
<use data-text="(" xlink:href="#font_2_1" transform="matrix(9.963098,0,0,-9.9626,183.57468,66.149997)" fill="#0000ff"/>
<use data-text="x" xlink:href="#font_5_2" transform="matrix(9.963098,0,0,-9.9626,187.47766,66.149997)" fill="#0000ff"/>
<use data-text=")" xlink:href="#font_2_2" transform="matrix(9.963098,0,0,-9.9626,193.17194,66.149997)" fill="#0000ff"/>
<path transform="matrix(1.00005,0,0,-1,6.5826265,165.409)" stroke-width=".3985" stroke-linecap="butt" stroke-miterlimit="10" stroke-linejoin="miter" fill="none" stroke="#ff0000" d="M48.56879 161.39958 49.54993 154.50412 50.53107 151.63098 51.51222 149.41385 52.49335 147.53595 53.4745 145.87349 54.45564 144.36174 55.43678 142.96407 56.41792 141.65598 57.39908 140.42003 58.3802 139.24512 59.36134 138.12137 60.3425 137.04105 61.32364 135.9993 62.30478 134.9911 63.28592 134.01302 64.26707 133.06102 65.24821 132.13266 66.22935 131.22527 67.2105 130.33776 68.19165 129.46785 69.17278 128.61409 70.15393 127.77466 71.13507 126.94908 72.11621 126.136 73.09735 125.3348 74.0785 124.5437 75.05965 123.76201 76.04079 122.98961 77.02193 122.22551 78.00307 121.46916 78.9842 120.71948 79.96535 119.97684 80.9465 119.2401 81.92764 118.50902 82.90878 117.78333 83.88994 117.06201 84.87108 116.3446 85.85222 115.63142 86.83336 114.92188 87.8145 114.21542 88.79564 113.51147 89.77678 112.81038 90.75793 112.1115 91.73907 111.41449 92.72021 110.71942 93.70135 110.02527 94.68251 109.3318 95.66364 108.63936 96.64479 107.94736 97.62595 107.25514 98.60707 106.56314 99.58821 105.87073 100.56937 105.17758 101.5505 104.48311 102.53165 103.78838 103.51279 103.09103 104.49394 102.39215 105.47507 101.69109 106.45622 100.98749 107.43736 100.28073 108.41852 99.57112 109.39964 98.858 110.38078 98.14098 111.36194 97.41931 112.34306 96.69405 113.32422 95.96257 114.30537 95.22594 115.2865 94.48322 116.26765 93.73361 117.2488 92.97726 118.22995 92.21326 119.21107 91.44093 120.19221 90.65924 121.17337 89.86818 122.1545 89.06697 123.13565 88.25394 124.11679 87.42847 125.09795 86.58952 126.07907 85.7354 127.06023 84.8656 128.04137 83.97813 129.02249 83.07086 130.00365 82.14262 130.9848 81.19067 131.96593 80.21274 132.94709 79.2047 133.92823 78.16315 134.90938 77.08295 135.8905 75.9594 136.87166 74.78476 137.8528 73.54973 138.83394 72.24208 139.81508 70.84413 140.79622 69.33295 141.77738 67.67131 142.7585 65.79456 143.73966 63.5806 144.7208 60.71234 145.70194 53.93771"/>
<use data-text="a" xlink:href="#font_2_5" transform="matrix(9.963098,0,0,-9.9626,10.820839,18.199997)" fill="#ff0000"/>
<use data-text="r" xlink:href="#font_2_10" transform="matrix(9.963098,0,0,-9.9626,15.802383,18.199997)" fill="#ff0000"/>
<use data-text="c" xlink:href="#font_2_6" transform="matrix(9.963098,0,0,-9.9626,19.69796,18.199997)" fill="#ff0000"/>
<use data-text="c" xlink:href="#font_2_6" transform="matrix(9.963098,0,0,-9.9626,24.121575,18.199997)" fill="#ff0000"/>
<use data-text="o" xlink:href="#font_2_9" transform="matrix(9.963098,0,0,-9.9626,28.545189,18.199997)" fill="#ff0000"/>
<use data-text="s" xlink:href="#font_2_11" transform="matrix(9.963098,0,0,-9.9626,33.526735,18.199997)" fill="#ff0000"/>
<use data-text="(" xlink:href="#font_2_1" transform="matrix(9.963098,0,0,-9.9626,37.452196,18.199997)" fill="#ff0000"/>
<use data-text="x" xlink:href="#font_5_2" transform="matrix(9.963098,0,0,-9.9626,41.34636,18.199997)" fill="#ff0000"/>
<use data-text=")" xlink:href="#font_2_2" transform="matrix(9.963098,0,0,-9.9626,47.040636,18.199997)" fill="#ff0000"/>
<path transform="matrix(1.00005,0,0,-1,6.5826265,165.409)" stroke-width=".3985" stroke-linecap="butt" stroke-miterlimit="10" stroke-linejoin="miter" fill="none" stroke="#ff8000" d="M0 15.87994 1.96236 16.16426 3.92471 16.45374 5.8871 16.75401 7.84946 17.06474 9.81183 17.38577 11.7742 17.71878 13.73656 18.06346 15.69894 18.41957 17.6613 18.79103 19.62367 19.17264 21.58604 19.57031 23.54842 19.98434 25.51079 20.41019 27.47314 20.85455 29.43552 21.31566 31.39789 21.79688 33.36026 22.2943 35.32263 22.81319 37.28499 23.35037 39.24736 23.91103 41.20973 24.49539 43.1721 25.10272 45.13448 25.73355 47.09685 26.39125 49.0592 27.07376 51.02158 27.78694 52.98395 28.52966 54.9463 29.30247 56.90869 30.10701 58.87105 30.94434 60.83344 31.81523 62.79579 32.72025 64.75815 33.66068 66.72054 34.63655 68.68289 35.64879 70.64528 36.69705 72.60764 37.7818 74.56999 38.90211 76.53238 40.05724 78.49474 41.24698 80.45712 42.4693 82.41948 43.722 84.38185 45.00342 86.34422 46.3102 88.30658 47.6398 90.26897 48.98813 92.23132 50.35196 94.1937 51.7265 96.15607 53.10811 98.11844 54.49127 100.08081 55.87286 102.04317 57.2474 104.00554 58.6109 105.96791 59.95956 107.93028 61.28886 109.89264 62.59596 111.85501 63.87706 113.81738 65.1301 115.77975 66.35213 117.74213 67.54189 119.70448 68.69759 121.66687 69.81761 123.62923 70.90211 125.5916 71.95067 127.55397 72.96266 129.51633 73.93881 131.47872 74.879 133.44107 75.78426 135.40346 76.65494 137.36582 77.49228 139.32817 78.29683 141.29056 79.07002 143.25292 79.81238 145.2153 80.52559 147.17766 81.20668 149.14002 81.86615 151.1024 82.49698 153.06476 83.1043 155.02715 83.68866 156.9895 84.24934 158.95188 84.78651 160.91425 85.30539 162.8766 85.80283 164.83898 86.282 166.80135 86.74516 168.76372 87.18951 170.72609 87.61534 172.68846 88.02937 174.65082 88.42706 176.61319 88.80865 178.57556 89.18011 180.53794 89.53624 182.5003 89.88094 184.46266 90.21393 186.42504 90.53496 188.3874 90.84569 190.34978 91.14598 192.31215 91.43544 194.2745 91.71648"/>
<use data-text="a" xlink:href="#font_2_5" transform="matrix(9.963098,0,0,-9.9626,156.98014,91.15199)" fill="#ff8000"/>
<use data-text="r" xlink:href="#font_2_10" transform="matrix(9.963098,0,0,-9.9626,161.96167,91.15199)" fill="#ff8000"/>
<use data-text="c" xlink:href="#font_2_6" transform="matrix(9.963098,0,0,-9.9626,165.85726,91.15199)" fill="#ff8000"/>
<use data-text="t" xlink:href="#font_2_12" transform="matrix(9.963098,0,0,-9.9626,170.28087,91.15199)" fill="#ff8000"/>
<use data-text="a" xlink:href="#font_2_5" transform="matrix(9.963098,0,0,-9.9626,174.14655,91.15199)" fill="#ff8000"/>
<use data-text="n" xlink:href="#font_2_8" transform="matrix(9.963098,0,0,-9.9626,179.1281,91.15199)" fill="#ff8000"/>
<use data-text="(" xlink:href="#font_2_1" transform="matrix(9.963098,0,0,-9.9626,184.6576,91.15199)" fill="#ff8000"/>
<use data-text="x" xlink:href="#font_5_2" transform="matrix(9.963098,0,0,-9.9626,188.55771,91.15199)" fill="#ff8000"/>
<use data-text=")" xlink:href="#font_2_2" transform="matrix(9.963098,0,0,-9.9626,194.25199,91.15199)" fill="#ff8000"/>
</g>
</svg>
