<svg xmlns="http://www.w3.org/2000/svg" xmlns:xlink="http://www.w3.org/1999/xlink" xmlns:inkscape="http://www.inkscape.org/namespaces/inkscape" version="1.1" width="265" height="165" viewBox="0 0 265 165">
<defs>
<path id="font_1_1" d="M.6589966 .23046875C.6759949 .23046875 .69400027 .23046875 .69400027 .25045777 .69400027 .27046205 .6759949 .27046205 .6589966 .27046205H.117996219C.100997928 .27046205 .08299255 .27046205 .08299255 .25045777 .08299255 .23046875 .100997928 .23046875 .117996219 .23046875H.6589966Z"/>
<path id="font_2_6" d="M.1269989 .07699585 .23298645 .18003845C.3889923 .31811524 .44898988 .3721466 .44898988 .47216798 .44898988 .5860901 .35899354 .6660156 .23699951 .6660156 .12399292 .6660156 .049987794 .57411196 .049987794 .48516847 .049987794 .4291687 .099990848 .4291687 .102996829 .4291687 .11999512 .4291687 .15499878 .44117738 .15499878 .48217774 .15499878 .5081787 .13699341 .5341797 .101989749 .5341797 .09399414 .5341797 .09199524 .5341797 .08898926 .5331726 .11199951 .59806826 .1659851 .63500979 .22399903 .63500979 .31498719 .63500979 .35798646 .5541382 .35798646 .47216798 .35798646 .39215089 .30799867 .31311036 .25299073 .25108338L.06098938 .036987306C.049987794 .025985718 .049987794 .023986817 .049987794 0H.42099L.44898988 .17404175H.42399598C.4189911 .14402771 .4119873 .1000061 .4019928 .084991458 .394989 .07699585 .32899476 .07699585 .30699159 .07699585H.1269989Z"/>
<path id="font_2_5" d="M.2939911 .64004519C.2939911 .66400149 .2939911 .6660156 .2709961 .6660156 .20899964 .60227969 .12098694 .60227969 .08898926 .60227969V.57128909C.10899353 .57128909 .16799927 .57128909 .21998596 .5972748V.07902527C.21998596 .042999269 .21699524 .0309906 .1269989 .0309906H.09498596V0C.12998963 .0029907227 .21699524 .0029907227 .25698854 .0029907227 .29699708 .0029907227 .38398744 .0029907227 .4189911 0V.0309906H.3869934C.29699708 .0309906 .2939911 .041992189 .2939911 .07902527V.64004519Z"/>
<path id="font_2_7" d="M.2899933 .35191346C.37199403 .37893678 .42999269 .4490509 .42999269 .52809146 .42999269 .6100464 .34199525 .6660156 .24598694 .6660156 .14498902 .6660156 .068984989 .60606387 .068984989 .53009036 .068984989 .49710084 .09098816 .47808839 .11999512 .47808839 .15098572 .47808839 .17098999 .50009158 .17098999 .5290985 .17098999 .57910159 .12399292 .57910159 .10899353 .57910159 .13999939 .62802127 .20599365 .64100649 .24198914 .64100649 .2829895 .64100649 .33799745 .6190338 .33799745 .5290985 .33799745 .51708987 .33599855 .45906068 .30999757 .4149933 .27999879 .36691285 .24598694 .36390687 .22099304 .36291505 .21299744 .36190797 .18899536 .35990907 .18199158 .35990907 .17399597 .35890199 .16699219 .35791017 .16699219 .3479004 .16699219 .33691407 .17399597 .33691407 .19099427 .33691407H.23498535C.31698609 .33691407 .35398866 .2686615 .35398866 .17037964 .35398866 .034469606 .2849884 .0055389406 .24099732 .0055389406 .19799805 .0055389406 .12298584 .022491456 .08799744 .08137512 .12298584 .07637024 .1539917 .09837341 .1539917 .1363678 .1539917 .17237854 .1269989 .19238281 .09799194 .19238281 .07398987 .19238281 .041992189 .17837525 .041992189 .1343689 .041992189 .043441774 .1349945-.022460938 .24398804-.022460938 .3659973-.022460938 .45700074 .06838989 .45700074 .17037964 .45700074 .252594 .3939972 .33088685 .2899933 .35191346Z"/>
<clipPath id="clip_3">
<path transform="matrix(1.00006,0,0,-1.00002,-18.33218,276.1662)" d="M19.42737 112.97426H213.70105V274.36607H19.42737Z"/>
</clipPath>
<path id="font_4_3" d="M.33399964 .30233766C.33999635 .32835389 .36299134 .42037965 .43299867 .42037965 .43798829 .42037965 .46199037 .42037965 .48298646 .40734864 .45498658 .402359 .43499757 .37734986 .43499757 .35334779 .43499757 .33735658 .44599916 .31835938 .47299195 .31835938 .49499513 .31835938 .5269928 .3363495 .5269928 .37635804 .5269928 .42837525 .46798707 .4423828 .43399049 .4423828 .37599183 .4423828 .34098817 .38935853 .32899476 .36634828 .3039856 .43237306 .25 .4423828 .22099304 .4423828 .116989139 .4423828 .05999756 .3133545 .05999756 .28834535 .05999756 .27833558 .069992069 .27833558 .07199097 .27833558 .07998657 .27833558 .08299255 .28033448 .084991458 .28933717 .11898804 .39535523 .18499756 .42037965 .21899414 .42037965 .23799134 .42037965 .272995 .4113617 .272995 .35334779 .272995 .32235719 .2559967 .25532533 .21899414 .11528015 .20298767 .053268434 .16799927 .011245728 .12399292 .011245728 .117996219 .011245728 .09498596 .011245728 .07398987 .024276734 .09899902 .029266358 .12098694 .05027771 .12098694 .07827759 .12098694 .105270389 .09899902 .11328125 .083999637 .11328125 .053985597 .11328125 .0289917 .08728027 .0289917 .055267335 .0289917 .009246826 .07899475-.0107421879 .12298584-.0107421879 .18899536-.0107421879 .22499085 .059280397 .22799683 .0652771 .23999024 .028274537 .27598573-.0107421879 .33599855-.0107421879 .43899537-.0107421879 .49598695 .118270877 .49598695 .14328003 .49598695 .1532898 .4869995 .1532898 .48399354 .1532898 .47499085 .1532898 .47299195 .14929199 .47099305 .14228821 .43798829 .03527832 .36999513 .011245728 .33799745 .011245728 .29899598 .011245728 .2829895 .043273927 .2829895 .07727051 .2829895 .09927368 .2889862 .121276859 .2999878 .16529846L.33399964 .30233766Z"/>
<path id="font_4_4" d="M.48599244 .38136292C.48999024 .39537049 .48999024 .39736939 .48999024 .40437318 .48999024 .42237855 .47599793 .43138124 .46099855 .43138124 .45098878 .43138124 .43499757 .42536927 .42599488 .41036988 .42399598 .405365 .41600038 .37435914 .4119873 .35635377 .40499879 .33035279 .397995 .30334474 .3919983 .27633668L.34700013 .09628296C.34298707 .08126831 .2999878 .011245728 .23399353 .011245728 .18299866 .011245728 .17199707 .055267335 .17199707 .0922699 .17199707 .1382904 .18899536 .20030213 .22299195 .28833009 .23899842 .3293457 .24299622 .3403473 .24299622 .36035157 .24299622 .405365 .21099854 .4423828 .16099549 .4423828 .06599426 .4423828 .0289917 .29733277 .0289917 .28833009 .0289917 .27833558 .038986207 .27833558 .040985109 .27833558 .050994874 .27833558 .051986696 .28033448 .056991579 .29634095 .083999637 .3903656 .12399292 .42037965 .1579895 .42037965 .1659851 .42037965 .18299866 .42037965 .18299866 .3883667 .18299866 .36335755 .17298889 .3373413 .1659851 .31834413 .12599182 .21231079 .10798645 .1552887 .10798645 .10827637 .10798645 .019256592 .17098999-.0107421879 .22999573-.0107421879 .2689972-.0107421879 .30299378 .0062561037 .33099366 .03425598 .31799317-.017745972 .30599977-.06674194 .2659912-.11973572 .23999024-.15385437 .20199585-.18309021 .1559906-.18309021 .14199829-.18309021 .09700012-.18005371 .07998657-.14074707 .09599304-.14074707 .10899353-.14074707 .12298584-.1287384 .1329956-.11973572 .14299011-.10673523 .14299011-.08773804 .14299011-.056747438 .115997318-.052734376 .10598755-.052734376 .08299255-.052734376 .049987794-.068740848 .049987794-.11773682 .049987794-.16796875 .09399414-.20507813 .1559906-.20507813 .25898744-.20507813 .3619995-.11373901 .3899994-.00074768069L.48599244 .38136292Z"/>
<path id="font_4_2" d="M.36698915 .3996582H.45298768C.47299195 .3996582 .48298646 .3996582 .48298646 .41966249 .48298646 .43066407 .47299195 .43066407 .45599366 .43066407H.37298585L.3939972 .5449524C.397995 .5660095 .4119873 .6370239 .41799928 .6490326 .4269867 .66804507 .44400025 .68307498 .46499635 .68307498 .46899415 .68307498 .49499513 .68307498 .5139923 .66503909 .46998597 .661026 .45999146 .6260376 .45999146 .6110382 .45999146 .58802798 .47799684 .57603457 .49699403 .57603457 .522995 .57603457 .5519867 .5980377 .5519867 .6360321 .5519867 .6820679 .5059967 .7050781 .46499635 .7050781 .43099977 .7050781 .36799623 .68707278 .33799745 .58802798 .33198548 .56700137 .32899476 .5569763 .30499269 .43066407H.23599243C.21699524 .43066407 .20599365 .43066407 .20599365 .4116516 .20599365 .3996582 .21499634 .3996582 .23399353 .3996582H.2999878L.22499085 .0048828127C.20698548-.09207153 .18998719-.18309021 .13798523-.18309021 .13398743-.18309021 .10899353-.18309021 .08999634-.16506958 .13598633-.1620636 .14498902-.12606812 .14498902-.111068729 .14498902-.08807373 .1269989-.07606506 .10798645-.07606506 .08198547-.07606506 .052993776-.09806824 .052993776-.13606262 .052993776-.18109131 .09700012-.20507813 .13798523-.20507813 .19299317-.20507813 .23298645-.14607239 .25099183-.108062747 .2829895-.04508972 .30599977 .07583618 .30699159 .082839969L.36698915 .3996582Z"/>
<path id="font_2_1" d="M.33099366-.2400055C.33099366-.23701477 .33099366-.23500061 .31399537-.21800232 .18899536-.0920105 .15699768 .09700012 .15699768 .25 .15699768 .42399598 .19499207 .59799197 .31799317 .72299197 .33099366 .73498538 .33099366 .7369995 .33099366 .73999026 .33099366 .746994 .32699586 .75 .32099916 .75 .31098939 .75 .22099304 .6819916 .1619873 .5549927 .11099243 .44499208 .09899902 .33399964 .09899902 .25 .09899902 .17199707 .10998535 .050994874 .16499329-.06201172 .22499085-.18501282 .31098939-.25 .32099916-.25 .32699586-.25 .33099366-.24700928 .33099366-.2400055Z"/>
<path id="font_2_2" d="M.2889862 .25C.2889862 .32798768 .27799989 .44898988 .22299195 .56199648 .16299439 .68499758 .07699585 .75 .066986087 .75 .06098938 .75 .056991579 .74598696 .056991579 .73999026 .056991579 .7369995 .056991579 .73498538 .07598877 .71699526 .17399597 .6179962 .23098755 .45899964 .23098755 .25 .23098755 .07899475 .19400025-.09700012 .069992069-.2230072 .056991579-.23500061 .056991579-.23701477 .056991579-.2400055 .056991579-.2460022 .06098938-.25 .066986087-.25 .07699585-.25 .16699219-.18200684 .22599793-.055007936 .2769928 .054992677 .2889862 .16600037 .2889862 .25Z"/>
<path id="font_2_8" d="M.68699648 .32714845C.70199587 .32714845 .72099307 .32714845 .72099307 .34713746 .72099307 .36714173 .70199587 .36714173 .6879883 .36714173H.08898926C.07499695 .36714173 .055999757 .36714173 .055999757 .34713746 .055999757 .32714845 .07499695 .32714845 .08999634 .32714845H.68699648M.6879883 .13284302C.70199587 .13284302 .72099307 .13284302 .72099307 .15284729 .72099307 .17285156 .70199587 .17285156 .68699648 .17285156H.08999634C.07499695 .17285156 .055999757 .17285156 .055999757 .15284729 .055999757 .13284302 .07499695 .13284302 .08898926 .13284302H.6879883Z"/>
<path id="font_2_3" d="M.40899659 .23046875H.6879883C.70199587 .23046875 .72099307 .23046875 .72099307 .25045777 .72099307 .27046205 .70199587 .27046205 .6879883 .27046205H.40899659V.5500183C.40899659 .56399539 .40899659 .5830078 .3889923 .5830078 .36898805 .5830078 .36898805 .56399539 .36898805 .5500183V.27046205H.08898926C.07499695 .27046205 .055999757 .27046205 .055999757 .25045777 .055999757 .23046875 .07499695 .23046875 .08898926 .23046875H.36898805V-.05000305C.36898805-.06401062 .36898805-.08300781 .3889923-.08300781 .40899659-.08300781 .40899659-.06401062 .40899659-.05000305V.23046875Z"/>
<path id="font_5_98" d="M.3600006 .12823487C.3600006 .18122864 .32998658 .21122742 .31799317 .22323609 .2849884 .25523377 .24598694 .26322938 .20399475 .27124024 .147995 .28224183 .08099365 .29522706 .08099365 .35324098 .08099365 .38822938 .10699463 .42922975 .19299317 .42922975 .30299378 .42922975 .30799867 .3392334 .30999757 .30822755 .31098939 .2992401 .32199098 .2992401 .32199098 .2992401 .33499146 .2992401 .33499146 .30422975 .33499146 .32322694V.4242401C.33499146 .4412384 .33499146 .4482422 .32398988 .4482422 .31900025 .4482422 .31698609 .4482422 .3039856 .43623353 .30099488 .43223573 .29100038 .42323304 .2869873 .42022706 .24899292 .4482422 .20799256 .4482422 .19299317 .4482422 .070999149 .4482422 .032989503 .38124085 .032989503 .3252411 .032989503 .29023744 .04899597 .26223756 .07598877 .24023438 .10798645 .2142334 .13598633 .2082367 .20799256 .19422913 .22999573 .19021607 .31199647 .17422486 .31199647 .10221863 .31199647 .051223756 .2769928 .011245728 .19898987 .011245728 .114990238 .011245728 .07899475 .068222049 .05999756 .1532135 .056991579 .16621399 .055999757 .17021179 .04598999 .17021179 .032989503 .17021179 .032989503 .16322327 .032989503 .1452179V.013214111C.032989503-.003753662 .032989503-.0107421879 .04399109-.0107421879 .04899597-.0107421879 .049987794-.009750366 .068984989 .009246826 .070999149 .011245728 .070999149 .013214111 .08898926 .032226564 .1329956-.009750366 .17799378-.0107421879 .19898987-.0107421879 .31399537-.0107421879 .3600006 .05621338 .3600006 .1282196V.12823487Z"/>
<path id="font_5_66" d="M.24699402 0V.0309906C.18099976 .0309906 .1769867 .035995485 .1769867 .075042728V.4423828L.036987306 .43066407V.3996582C.101989749 .3996582 .11099243 .3936615 .11099243 .3447113V.07595825C.11099243 .0309906 .099990848 .0309906 .032989503 .0309906V0L.14299011 .0029907227C.17799378 .0029907227 .21299744 .0009918213 .24699402 0M.19198609 .603775C.19198609 .6307678 .16899109 .6567688 .13899231 .6567688 .10499573 .6567688 .084991458 .6287689 .084991458 .603775 .084991458 .57676699 .10798645 .55078127 .13798523 .55078127 .17199707 .55078127 .19198609 .5787811 .19198609 .603775Z"/>
<path id="font_1_2" d="M.6749878 .59420779C.6859894 .5991974 .69400027 .6042023 .69400027 .61621096 .69400027 .62719729 .6859894 .63619998 .673996 .63619998 .6689911 .63619998 .6599884 .63220217 .6559906 .63020327L.102996829 .36917115C.085998538 .36116029 .08299255 .3541565 .08299255 .3461609 .08299255 .3371582 .08898926 .33015443 .102996829 .3241577L.6559906 .06411743C.6689911 .057113649 .67099 .057113649 .673996 .057113649 .68499758 .057113649 .69400027 .06611633 .69400027 .07711792 .69400027 .086120609 .6899872 .09211731 .6729889 .100128177L.1499939 .3461609 .6749878 .59420779M.6589966-.13671875C.6759949-.13671875 .69400027-.13671875 .69400027-.11672974 .69400027-.096725467 .6729889-.096725467 .6579895-.096725467H.11898804C.10398865-.096725467 .08299255-.096725467 .08299255-.11672974 .08299255-.13671875 .100997928-.13671875 .117996219-.13671875H.6589966Z"/>
<path id="font_2_4" d="M.45999146 .31976319C.45999146 .39982606 .45498658 .47988893 .41999818 .5539398 .37399293 .65000918 .2919922 .6660156 .25 .6660156 .18998719 .6660156 .116989139 .64001467 .07598877 .54693606 .04399109 .47789 .038986207 .39982606 .038986207 .31976319 .038986207 .24472046 .042999269 .15464783 .083999637 .07859802 .1269989-.0024719239 .19999695-.022460938 .24899292-.022460938 .30299378-.022460938 .3789978-.0014648438 .4229889 .09359741 .45498658 .16265869 .45999146 .2407074 .45999146 .31976319M.24899292-.00047302247C.20999146-.00047302247 .15098572 .024551392 .1329956 .12062073 .12199402 .18066406 .12199402 .2727356 .12199402 .3317871 .12199402 .39582826 .12199402 .46188355 .12998963 .5159149 .14898682 .63500979 .22399903 .64401248 .24899292 .64401248 .28199769 .64401248 .34799195 .6259918 .36698915 .52693179 .3769989 .47088624 .3769989 .39482118 .3769989 .3317871 .3769989 .25672914 .3769989 .18867493 .3659973 .12461853 .35099793 .029556275 .2939911-.00047302247 .24899292-.00047302247Z"/>
<path id="font_6_1" d="M.5049896 .18203736H.47099305C.46798707 .16001892 .45799256 .100997928 .44499208 .09098816 .43699647 .084991458 .3600006 .084991458 .34599305 .084991458H.1619873C.2669983 .17803955 .3019867 .20603943 .3619995 .25306703 .43598939 .312088 .5049896 .374115 .5049896 .46914674 .5049896 .5900879 .39898683 .6640625 .2709961 .6640625 .14698792 .6640625 .06298828 .57710269 .06298828 .4851532 .06298828 .43414308 .10598755 .42915345 .115997318 .42915345 .13999939 .42915345 .16899109 .44615174 .16899109 .48214723 .16899109 .5001526 .1619873 .53515627 .10998535 .53515627 .14099121 .6060791 .20899964 .62805178 .2559967 .62805178 .35598756 .62805178 .4079895 .5501404 .4079895 .46914674 .4079895 .38212586 .34599305 .3130951 .31399537 .27708436L.07299805 .038986207C.06298828 .02999878 .06298828 .027999878 .06298828 0H.47499085L.5049896 .18203736Z"/>
<path id="font_4_1" d="M.6749878 .22798157C.6859894 .23298645 .69400027 .23799134 .69400027 .24998474 .69400027 .2619934 .6859894 .2669983 .6749878 .27198792L.12098694 .53305056C.10798645 .5400543 .10598755 .5400543 .102996829 .5400543 .09199524 .5400543 .08299255 .53105166 .08299255 .52005007 .08299255 .51104739 .08799744 .50505068 .101989749 .49804688L.6269989 .24998474 .101989749 .0019378662C.08799744-.005065918 .08299255-.011062622 .08299255-.020065308 .08299255-.031066895 .09199524-.04006958 .102996829-.04006958 .10598755-.04006958 .10798645-.04006958 .12098694-.033065797L.6749878 .22798157Z"/>
</defs>
<path transform="matrix(1.00006,0,0,-1.00002,-18.33218,276.1662)" stroke-width=".3985" stroke-linecap="butt" stroke-miterlimit="10" stroke-linejoin="miter" fill="none" stroke="#cbcbcb" d="M48.56842 112.97426V274.36607M58.2821 112.97426V274.36607M67.99579 112.97426V274.36607M87.42316 112.97426V274.36607M97.13684 112.97426V274.36607M106.85052 112.97426V274.36607M126.2779 112.97426V274.36607M135.99158 112.97426V274.36607M145.70526 112.97426V274.36607M165.13263 112.97426V274.36607M174.84632 112.97426V274.36607M184.56 112.97426V274.36607"/>
<path transform="matrix(1.00006,0,0,-1.00002,-18.33218,276.1662)" stroke-width=".3985" stroke-linecap="butt" stroke-miterlimit="10" stroke-linejoin="miter" fill="none" stroke="#cbcbcb" d="M38.85474 112.97426V274.36607M77.70947 112.97426V274.36607M155.41895 112.97426V274.36607M194.27368 112.97426V274.36607"/>
<path transform="matrix(1.00006,0,0,-1.00002,-18.33218,276.1662)" stroke-width=".3985" stroke-linecap="butt" stroke-miterlimit="10" stroke-linejoin="miter" fill="none" stroke="#cbcbcb" d="M19.42737 137.18303H213.70105M19.42737 145.25261H213.70105M19.42737 153.3222H213.70105M19.42737 169.46138H213.70105M19.42737 177.53098H213.70105M19.42737 185.60057H213.70105M19.42737 201.73975H213.70105M19.42737 209.80934H213.70105M19.42737 217.87892H213.70105M19.42737 234.01811H213.70105M19.42737 242.08769H213.70105M19.42737 250.15729H213.70105"/>
<path transform="matrix(1.00006,0,0,-1.00002,-18.33218,276.1662)" stroke-width=".3985" stroke-linecap="butt" stroke-miterlimit="10" stroke-linejoin="miter" fill="none" stroke="#cbcbcb" d="M19.42737 129.11344H213.70105M19.42737 193.67015H213.70105M19.42737 225.94852H213.70105M19.42737 258.22688H213.70105"/>
<path transform="matrix(1.00006,0,0,-1.00002,-18.33218,276.1662)" stroke-width=".19925" stroke-linecap="butt" stroke-miterlimit="10" stroke-linejoin="miter" fill="none" stroke="#929292" d="M48.56842 159.97438V162.80922M58.2821 159.97438V162.80922M67.99579 159.97438V162.80922M87.42316 159.97438V162.80922M97.13684 159.97438V162.80922M106.85052 159.97438V162.80922M126.2779 159.97438V162.80922M135.99158 159.97438V162.80922M145.70526 159.97438V162.80922M165.13263 159.97438V162.80922M174.84632 159.97438V162.80922M184.56 159.97438V162.80922"/>
<path transform="matrix(1.00006,0,0,-1.00002,-18.33218,276.1662)" stroke-width=".19925" stroke-linecap="butt" stroke-miterlimit="10" stroke-linejoin="miter" fill="none" stroke="#929292" d="M38.85474 159.26586V163.51772M77.70947 159.26586V163.51772M155.41895 159.26586V163.51772M194.27368 159.26586V163.51772"/>
<path transform="matrix(1.00006,0,0,-1.00002,-18.33218,276.1662)" stroke-width=".19925" stroke-linecap="butt" stroke-miterlimit="10" stroke-linejoin="miter" fill="none" stroke="#929292" d="M115.14671 137.18303H117.98169M115.14671 145.25261H117.98169M115.14671 153.3222H117.98169M115.14671 169.46138H117.98169M115.14671 177.53098H117.98169M115.14671 185.60057H117.98169M115.14671 201.73975H117.98169M115.14671 209.80934H117.98169M115.14671 217.87892H117.98169M115.14671 234.01811H117.98169M115.14671 242.08769H117.98169M115.14671 250.15729H117.98169"/>
<path transform="matrix(1.00006,0,0,-1.00002,-18.33218,276.1662)" stroke-width=".19925" stroke-linecap="butt" stroke-miterlimit="10" stroke-linejoin="miter" fill="none" stroke="#929292" d="M114.43817 129.11344H118.69022M114.43817 193.67015H118.69022M114.43817 225.94852H118.69022M114.43817 258.22688H118.69022"/>
<path transform="matrix(1.00006,0,0,-1.00002,-18.33218,276.1662)" stroke-width=".3985" stroke-linecap="butt" stroke-miterlimit="10" stroke-linejoin="miter" fill="none" stroke="#000000" d="M19.42737 161.3918H211.70853"/>
<path transform="matrix(1.00006,0,0,-1.00002,193.38904,114.771167)" d="M1.99252 0-1.19551 1.59401 0 0-1.19551-1.59401"/>
<path transform="matrix(1.00006,0,0,-1.00002,-18.33218,276.1662)" stroke-width=".3985" stroke-linecap="butt" stroke-miterlimit="10" stroke-linejoin="miter" fill="none" stroke="#000000" d="M116.56421 112.97426V272.37355"/>
<path transform="matrix(0,-1.00002,-1.00006,-0,98.23901,3.787201)" d="M1.99252 0-1.19551 1.59401 0 0-1.19551-1.59401"/>
<use data-text="&#x2212;" xlink:href="#font_1_1" transform="matrix(9.963197,0,0,-9.962799,14.159771,126.837207)"/>
<use data-text="2" xlink:href="#font_2_6" transform="matrix(9.963197,0,0,-9.962799,21.909234,126.837207)"/>
<use data-text="&#x2212;" xlink:href="#font_1_1" transform="matrix(9.963197,0,0,-9.962799,53.0161,126.837207)"/>
<use data-text="1" xlink:href="#font_2_5" transform="matrix(9.963197,0,0,-9.962799,60.765565,126.837207)"/>
<use data-text="1" xlink:href="#font_2_5" transform="matrix(9.963197,0,0,-9.962799,134.60498,126.837207)"/>
<use data-text="2" xlink:href="#font_2_6" transform="matrix(9.963197,0,0,-9.962799,173.46233,126.837207)"/>
<use data-text="&#x2212;" xlink:href="#font_1_1" transform="matrix(9.963197,0,0,-9.962799,79.86171,149.84568)"/>
<use data-text="1" xlink:href="#font_2_5" transform="matrix(9.963197,0,0,-9.962799,87.611179,149.84568)"/>
<use data-text="1" xlink:href="#font_2_5" transform="matrix(9.963197,0,0,-9.962799,87.611179,85.70238)"/>
<use data-text="2" xlink:href="#font_2_6" transform="matrix(9.963197,0,0,-9.962799,87.611179,53.423738)"/>
<use data-text="3" xlink:href="#font_2_7" transform="matrix(9.963197,0,0,-9.962799,87.611179,21.144089)"/>
<g clip-path="url(#clip_3)">
<path transform="matrix(1.00006,0,0,-1.00002,-18.33218,276.1662)" stroke-width=".79701" stroke-linecap="butt" stroke-miterlimit="10" stroke-linejoin="miter" fill="none" stroke="#0000ff" d="M0 129.11344 4.85683 133.14823 9.71368 137.18303 14.57051 141.21782 19.42737 145.25261 24.2842 149.2874 29.14105 153.3222 33.99788 157.357 38.85474 161.3918 43.71156 165.42659 48.56842 169.46138 53.42525 173.49617 58.2821 177.53098 63.13893 181.56577 67.99579 185.60057 72.85262 189.63536 77.70947 193.67015 82.5663 197.70494 87.42316 201.73975 92.27998 205.77454 97.13684 209.80934 101.99367 213.84413 106.85052 217.87892 111.70735 221.91371 116.56421 225.94852"/>
<path transform="matrix(1.00006,0,0,-1.00002,-18.33218,276.1662)" stroke-width=".3985" stroke-linecap="butt" stroke-dasharray="2.98883,2.98883" stroke-miterlimit="10" stroke-linejoin="miter" fill="none" stroke="#ff0000" d="M116.56421 193.67015 121.42104 197.20059 126.2779 199.72234 131.13472 201.2354 135.99158 201.73975 140.8484 201.2354 145.70526 199.72234 150.56209 197.20059 155.41895 193.67015 160.27577 189.131 165.13263 183.58316 169.98946 177.02663 174.84632 169.46138 179.70314 160.88744 184.56 151.3048 189.41683 140.71346 194.27368 129.11344 199.13051 116.50468 203.98737 102.88725 208.8442 88.26112 213.70105 72.6263 218.55788 55.98277 223.41474 38.33054 228.27156 19.6696 233.12842 0"/>
</g>
<path transform="matrix(1.00006,0,0,-1.00002,-18.33218,276.1662)" d="M118.55676 225.94852C118.55676 227.049 117.66467 227.94107 116.56421 227.94107 115.46373 227.94107 114.57166 227.049 114.57166 225.94852 114.57166 224.84806 115.46373 223.95597 116.56421 223.95597 117.66467 223.95597 118.55676 224.84806 118.55676 225.94852ZM116.56421 225.94852" fill="#0000ff"/>
<path transform="matrix(1.00006,0,0,-1.00002,-18.33218,276.1662)" stroke-width=".3985" stroke-linecap="butt" stroke-miterlimit="10" stroke-linejoin="miter" fill="none" stroke="#0000ff" d="M118.55676 225.94852C118.55676 227.049 117.66467 227.94107 116.56421 227.94107 115.46373 227.94107 114.57166 227.049 114.57166 225.94852 114.57166 224.84806 115.46373 223.95597 116.56421 223.95597 117.66467 223.95597 118.55676 224.84806 118.55676 225.94852ZM116.56421 225.94852"/>
<path transform="matrix(1.00006,0,0,-1.00002,-18.33218,276.1662)" stroke-width=".3985" stroke-linecap="butt" stroke-miterlimit="10" stroke-linejoin="miter" fill="none" stroke="#0000ff" d=""/>
<path transform="matrix(1.00006,0,0,-1.00002,-18.33218,276.1662)" stroke-width=".3985" stroke-linecap="butt" stroke-miterlimit="10" stroke-linejoin="miter" fill="none" stroke="#ff0000" d="M118.55676 193.67015C118.55676 194.77063 117.66467 195.6627 116.56421 195.6627 115.46373 195.6627 114.57166 194.77063 114.57166 193.67015 114.57166 192.56969 115.46373 191.6776 116.56421 191.6776 117.66467 191.6776 118.55676 192.56969 118.55676 193.67015ZM116.56421 193.67015"/>
<path transform="matrix(1.00006,0,0,-1.00002,-18.33218,276.1662)" stroke-width=".3985" stroke-linecap="butt" stroke-miterlimit="10" stroke-linejoin="miter" fill="none" stroke="#ff0000" d=""/>
<use data-text="x" xlink:href="#font_4_3" transform="matrix(9.963197,0,0,-9.962799,186.19809,111.227909)"/>
<use data-text="y" xlink:href="#font_4_4" transform="matrix(9.963197,0,0,-9.962799,101.778018,9.560852)"/>
<path transform="matrix(1.00006,0,0,-1.00002,-18.33218,276.1662)" d="M130.82422 214.85112H281.49876V245.37693H130.82422Z" fill="#ffffff"/>
<path transform="matrix(1.00006,0,0,-1.00002,-18.33218,276.1662)" stroke-width=".3985" stroke-linecap="butt" stroke-miterlimit="10" stroke-linejoin="miter" fill="none" stroke="#000000" d="M130.82422 214.85112H281.49876V245.37693H130.82422Z"/>
<path transform="matrix(1.00006,0,0,-1.00002,115.88787,39.25345)" stroke-width=".79701" stroke-linecap="butt" stroke-miterlimit="10" stroke-linejoin="miter" fill="none" stroke="#0000ff" d="M0 0H8.50412 17.00826"/>
<use data-text="f" xlink:href="#font_4_2" transform="matrix(9.963197,0,0,-9.962799,150.33194,42.242509)"/>
<use data-text="(" xlink:href="#font_2_1" transform="matrix(9.963197,0,0,-9.962799,156.28229,42.242509)"/>
<use data-text="x" xlink:href="#font_4_3" transform="matrix(9.963197,0,0,-9.962799,160.15653,42.242509)"/>
<use data-text=")" xlink:href="#font_2_2" transform="matrix(9.963197,0,0,-9.962799,165.85086,42.242509)"/>
<use data-text="=" xlink:href="#font_2_8" transform="matrix(9.963197,0,0,-9.962799,172.47638,42.242509)"/>
<use data-text="x" xlink:href="#font_4_3" transform="matrix(9.963197,0,0,-9.962799,183.00989,42.242509)"/>
<use data-text="+" xlink:href="#font_2_3" transform="matrix(9.963197,0,0,-9.962799,190.91837,42.242509)"/>
<use data-text="2" xlink:href="#font_2_6" transform="matrix(9.963197,0,0,-9.962799,200.87162,42.242509)"/>
<use data-text="s" xlink:href="#font_5_98" transform="matrix(9.963197,0,0,-9.962799,209.18048,42.242509)"/>
<use data-text="i" xlink:href="#font_5_66" transform="matrix(9.963197,0,0,-9.962799,213.10596,42.242509)"/>
<use data-text="x" xlink:href="#font_4_3" transform="matrix(9.963197,0,0,-9.962799,219.19406,42.242509)"/>
<use data-text="&#x2264;" xlink:href="#font_1_2" transform="matrix(9.963197,0,0,-9.962799,227.65558,42.242509)"/>
<use data-text="0" xlink:href="#font_2_4" transform="matrix(9.963197,0,0,-9.962799,238.17221,42.242509)"/>
<path transform="matrix(1.00006,0,0,-1.00002,115.88787,52.523714)" stroke-width=".3985" stroke-linecap="butt" stroke-dasharray="2.98883,2.98883" stroke-miterlimit="10" stroke-linejoin="miter" fill="none" stroke="#ff0000" d="M0 0H8.50412 17.00826"/>
<use data-text="f" xlink:href="#font_4_2" transform="matrix(9.963197,0,0,-9.962799,135.28704,55.83177)"/>
<use data-text="(" xlink:href="#font_2_1" transform="matrix(9.963197,0,0,-9.962799,141.2374,55.83177)"/>
<use data-text="x" xlink:href="#font_4_3" transform="matrix(9.963197,0,0,-9.962799,145.11162,55.83177)"/>
<use data-text=")" xlink:href="#font_2_2" transform="matrix(9.963197,0,0,-9.962799,150.80596,55.83177)"/>
<use data-text="=" xlink:href="#font_2_8" transform="matrix(9.963197,0,0,-9.962799,157.43149,55.83177)"/>
<use data-text="&#x2212;" xlink:href="#font_1_1" transform="matrix(9.963197,0,0,-9.962799,167.965,55.83177)"/>
<use data-text="x" xlink:href="#font_4_3" transform="matrix(9.963197,0,0,-9.962799,175.71445,55.83177)"/>
<use data-text="2" xlink:href="#font_6_1" transform="matrix(6.9742186,0,0,-6.97394,181.4088,52.21669)"/>
<use data-text="+" xlink:href="#font_2_3" transform="matrix(9.963197,0,0,-9.962799,188.0922,55.83177)"/>
<use data-text="x" xlink:href="#font_4_3" transform="matrix(9.963197,0,0,-9.962799,198.05579,55.83177)"/>
<use data-text="+" xlink:href="#font_2_3" transform="matrix(9.963197,0,0,-9.962799,205.96326,55.83177)"/>
<use data-text="1" xlink:href="#font_2_5" transform="matrix(9.963197,0,0,-9.962799,215.91649,55.83177)"/>
<use data-text="s" xlink:href="#font_5_98" transform="matrix(9.963197,0,0,-9.962799,224.22635,55.83177)"/>
<use data-text="i" xlink:href="#font_5_66" transform="matrix(9.963197,0,0,-9.962799,228.15184,55.83177)"/>
<use data-text="x" xlink:href="#font_4_3" transform="matrix(9.963197,0,0,-9.962799,234.23894,55.83177)"/>
<use data-text="&#x003e;" xlink:href="#font_4_1" transform="matrix(9.963197,0,0,-9.962799,242.68773,55.83177)"/>
<use data-text="0" xlink:href="#font_2_4" transform="matrix(9.963197,0,0,-9.962799,253.21808,55.83177)"/>
</svg>
